<svg xmlns="http://www.w3.org/2000/svg" xmlns:xlink="http://www.w3.org/1999/xlink" width="48" zoomAndPan="magnify" viewBox="0 0 36 36.000001" height="48" preserveAspectRatio="xMidYMid meet" version="1.0"><defs><clipPath id="59eb764223"><path d="M 0.488281 6.152344 L 22.234375 6.152344 L 22.234375 25.613281 L 0.488281 25.613281 Z M 0.488281 6.152344 " clip-rule="nonzero"/></clipPath><clipPath id="4e0e30c5cc"><path d="M 13.535156 23 L 32 23 L 32 28.554688 L 13.535156 28.554688 Z M 13.535156 23 " clip-rule="nonzero"/></clipPath><clipPath id="d0cf3ea61a"><path d="M 25 12.527344 L 35.285156 12.527344 L 35.285156 26 L 25 26 Z M 25 12.527344 " clip-rule="nonzero"/></clipPath></defs><g clip-path="url(#59eb764223)"><path fill="#000000" d="M 22.082031 13.910156 C 21.84375 13.3125 21.492188 12.765625 21.035156 12.316406 C 20.933594 12.21875 20.820312 12.121094 20.695312 12.035156 C 20.695312 11.355469 20.535156 10.691406 20.230469 10.097656 C 19.921875 9.5 19.46875 8.976562 18.882812 8.597656 C 18.523438 8.363281 18.117188 8.171875 17.695312 8.03125 C 17.269531 7.898438 16.824219 7.816406 16.378906 7.816406 C 16.222656 7.816406 16.0625 7.828125 15.910156 7.847656 C 15.90625 7.839844 15.902344 7.835938 15.898438 7.828125 C 15.667969 7.511719 15.367188 7.226562 15.0625 6.988281 C 14.90625 6.871094 14.753906 6.765625 14.605469 6.675781 C 14.453125 6.589844 14.3125 6.515625 14.183594 6.464844 C 13.65625 6.25 13.105469 6.15625 12.558594 6.15625 C 11.875 6.15625 11.191406 6.300781 10.542969 6.523438 C 10.414062 6.570312 10.273438 6.625 10.132812 6.699219 C 9.507812 6.410156 8.832031 6.265625 8.160156 6.265625 C 7.292969 6.265625 6.425781 6.5 5.667969 6.953125 C 5.355469 7.140625 4.898438 7.449219 4.511719 7.820312 C 4.320312 8.007812 4.144531 8.210938 4.015625 8.429688 C 4.003906 8.453125 3.988281 8.476562 3.976562 8.503906 C 3.597656 8.550781 3.242188 8.671875 2.914062 8.851562 C 2.296875 9.191406 1.78125 9.730469 1.421875 10.367188 C 1.058594 11 0.851562 11.730469 0.851562 12.445312 C 0.851562 12.757812 0.890625 13.066406 0.976562 13.363281 C 0.949219 13.390625 0.925781 13.417969 0.902344 13.445312 C 0.757812 13.625 0.652344 13.828125 0.585938 14.050781 C 0.519531 14.269531 0.488281 14.507812 0.488281 14.742188 C 0.488281 15.171875 0.589844 15.609375 0.773438 16.003906 C 0.863281 16.199219 0.976562 16.382812 1.109375 16.550781 C 1.238281 16.710938 1.390625 16.859375 1.558594 16.972656 C 1.792969 17.140625 2.050781 17.261719 2.316406 17.347656 C 2.585938 17.429688 2.863281 17.476562 3.144531 17.488281 C 3.199219 17.488281 3.25 17.445312 3.25 17.390625 C 3.253906 17.332031 3.207031 17.285156 3.152344 17.285156 C 2.890625 17.273438 2.628906 17.230469 2.378906 17.152344 C 2.128906 17.074219 1.890625 16.960938 1.671875 16.808594 C 1.523438 16.703125 1.386719 16.574219 1.265625 16.421875 C 1.085938 16.195312 0.941406 15.925781 0.84375 15.636719 C 0.742188 15.347656 0.691406 15.042969 0.691406 14.746094 C 0.691406 14.550781 0.714844 14.359375 0.765625 14.179688 C 0.800781 14.046875 0.851562 13.917969 0.914062 13.800781 C 0.957031 13.726562 1 13.65625 1.054688 13.589844 C 1.140625 13.824219 1.257812 14.046875 1.40625 14.25 C 1.515625 14.40625 1.671875 14.53125 1.851562 14.621094 C 2.027344 14.710938 2.226562 14.761719 2.425781 14.761719 C 2.519531 14.761719 2.617188 14.75 2.710938 14.722656 C 2.804688 14.695312 2.894531 14.652344 2.972656 14.59375 C 3.09375 14.507812 3.179688 14.398438 3.234375 14.277344 C 3.292969 14.15625 3.316406 14.027344 3.316406 13.894531 C 3.316406 13.761719 3.292969 13.632812 3.246094 13.511719 C 3.195312 13.386719 3.125 13.273438 3.035156 13.175781 C 2.921875 13.058594 2.785156 12.976562 2.640625 12.917969 C 2.492188 12.863281 2.332031 12.835938 2.179688 12.835938 C 2.074219 12.835938 1.976562 12.847656 1.878906 12.867188 C 1.636719 12.921875 1.429688 13.015625 1.25 13.132812 C 1.214844 13.160156 1.179688 13.183594 1.148438 13.210938 C 1.085938 12.960938 1.054688 12.707031 1.054688 12.445312 C 1.054688 11.996094 1.144531 11.535156 1.304688 11.101562 C 1.546875 10.449219 1.953125 9.847656 2.46875 9.410156 C 2.726562 9.191406 3.007812 9.011719 3.3125 8.890625 C 3.496094 8.8125 3.683594 8.757812 3.882812 8.726562 C 3.878906 8.738281 3.871094 8.753906 3.867188 8.765625 C 3.832031 8.882812 3.808594 9 3.808594 9.117188 C 3.808594 9.222656 3.824219 9.328125 3.859375 9.433594 C 3.894531 9.535156 3.945312 9.640625 4.019531 9.738281 C 4.109375 9.867188 4.234375 9.96875 4.371094 10.039062 C 4.511719 10.105469 4.664062 10.144531 4.820312 10.144531 C 4.855469 10.144531 4.890625 10.144531 4.925781 10.140625 C 5.015625 10.128906 5.109375 10.101562 5.195312 10.0625 C 5.28125 10.019531 5.363281 9.960938 5.425781 9.878906 C 5.46875 9.820312 5.5 9.757812 5.523438 9.691406 C 5.542969 9.625 5.550781 9.554688 5.550781 9.484375 C 5.550781 9.34375 5.515625 9.203125 5.445312 9.082031 C 5.390625 8.980469 5.316406 8.890625 5.234375 8.816406 C 5.105469 8.703125 4.957031 8.621094 4.796875 8.566406 C 4.636719 8.511719 4.464844 8.484375 4.296875 8.484375 C 4.289062 8.484375 4.28125 8.484375 4.269531 8.484375 C 4.253906 8.484375 4.238281 8.484375 4.222656 8.484375 C 4.261719 8.429688 4.300781 8.371094 4.34375 8.316406 C 4.535156 8.066406 4.792969 7.828125 5.054688 7.625 C 5.3125 7.417969 5.574219 7.25 5.773438 7.132812 C 6.496094 6.695312 7.328125 6.472656 8.160156 6.472656 C 8.753906 6.472656 9.347656 6.585938 9.902344 6.820312 C 9.832031 6.859375 9.765625 6.90625 9.699219 6.949219 C 9.523438 7.074219 9.363281 7.214844 9.242188 7.378906 C 9.179688 7.460938 9.132812 7.546875 9.09375 7.636719 C 9.0625 7.730469 9.042969 7.828125 9.042969 7.925781 C 9.042969 8.035156 9.0625 8.144531 9.113281 8.253906 C 9.160156 8.363281 9.234375 8.472656 9.335938 8.582031 C 9.433594 8.691406 9.554688 8.773438 9.6875 8.828125 C 9.816406 8.886719 9.960938 8.914062 10.101562 8.914062 C 10.257812 8.914062 10.410156 8.878906 10.550781 8.808594 C 10.722656 8.722656 10.863281 8.585938 10.960938 8.425781 C 11.058594 8.261719 11.113281 8.074219 11.113281 7.886719 C 11.113281 7.820312 11.105469 7.757812 11.09375 7.695312 C 11.074219 7.597656 11.042969 7.507812 10.996094 7.421875 C 10.933594 7.296875 10.84375 7.183594 10.742188 7.085938 C 10.636719 6.984375 10.519531 6.902344 10.398438 6.835938 C 10.386719 6.828125 10.371094 6.820312 10.359375 6.8125 C 10.445312 6.777344 10.53125 6.746094 10.609375 6.714844 C 11.238281 6.496094 11.902344 6.359375 12.554688 6.359375 C 13.082031 6.359375 13.605469 6.449219 14.101562 6.652344 C 14.28125 6.726562 14.5 6.847656 14.722656 7 C 15.058594 7.226562 15.40625 7.535156 15.667969 7.867188 C 15.675781 7.871094 15.679688 7.878906 15.683594 7.886719 C 15.390625 7.945312 15.101562 8.046875 14.832031 8.195312 C 14.675781 8.28125 14.53125 8.402344 14.421875 8.546875 C 14.3125 8.691406 14.234375 8.855469 14.203125 9.039062 C 14.195312 9.097656 14.191406 9.15625 14.191406 9.210938 C 14.191406 9.351562 14.21875 9.476562 14.269531 9.585938 C 14.308594 9.667969 14.359375 9.738281 14.421875 9.804688 C 14.515625 9.898438 14.625 9.96875 14.746094 10.011719 C 14.871094 10.058594 15 10.082031 15.136719 10.082031 C 15.265625 10.082031 15.402344 10.0625 15.527344 10.011719 C 15.65625 9.964844 15.777344 9.894531 15.878906 9.796875 C 16.027344 9.660156 16.132812 9.515625 16.203125 9.363281 C 16.273438 9.207031 16.300781 9.050781 16.300781 8.894531 C 16.300781 8.757812 16.28125 8.625 16.238281 8.496094 C 16.195312 8.339844 16.121094 8.1875 16.035156 8.039062 C 16.148438 8.027344 16.261719 8.023438 16.375 8.023438 C 16.792969 8.023438 17.21875 8.097656 17.628906 8.226562 C 18.035156 8.359375 18.425781 8.546875 18.773438 8.769531 C 19.328125 9.128906 19.757812 9.621094 20.046875 10.191406 C 20.316406 10.714844 20.46875 11.304688 20.488281 11.90625 C 20.429688 11.871094 20.367188 11.839844 20.304688 11.808594 C 20.164062 11.742188 20.023438 11.6875 19.875 11.652344 C 19.730469 11.613281 19.582031 11.59375 19.433594 11.59375 C 19.328125 11.59375 19.21875 11.605469 19.113281 11.632812 C 18.960938 11.667969 18.808594 11.738281 18.675781 11.84375 C 18.539062 11.945312 18.421875 12.089844 18.324219 12.265625 C 18.234375 12.433594 18.1875 12.617188 18.1875 12.796875 C 18.1875 12.980469 18.234375 13.15625 18.320312 13.316406 C 18.402344 13.476562 18.53125 13.617188 18.695312 13.71875 C 18.796875 13.78125 18.898438 13.824219 18.996094 13.851562 C 19.097656 13.882812 19.199219 13.898438 19.300781 13.898438 C 19.480469 13.898438 19.648438 13.851562 19.804688 13.773438 C 20.039062 13.65625 20.242188 13.464844 20.390625 13.242188 C 20.539062 13.015625 20.640625 12.757812 20.667969 12.492188 C 20.675781 12.421875 20.679688 12.355469 20.683594 12.285156 C 20.757812 12.339844 20.824219 12.402344 20.886719 12.460938 C 21.324219 12.890625 21.660156 13.417969 21.890625 13.988281 C 22.117188 14.558594 22.234375 15.175781 22.234375 15.792969 C 22.234375 15.953125 22.226562 16.113281 22.210938 16.273438 C 22.195312 16.421875 22.167969 16.582031 22.125 16.734375 C 22.058594 16.960938 21.960938 17.175781 21.824219 17.355469 C 21.757812 17.441406 21.679688 17.523438 21.589844 17.589844 C 21.503906 17.65625 21.40625 17.710938 21.292969 17.75 C 21.109375 17.820312 20.921875 17.847656 20.734375 17.847656 C 20.578125 17.847656 20.417969 17.824219 20.261719 17.789062 C 20.027344 17.730469 19.792969 17.636719 19.570312 17.523438 C 19.347656 17.40625 19.132812 17.269531 18.929688 17.132812 C 17.878906 16.40625 16.84375 15.570312 15.734375 14.878906 C 15.175781 14.53125 14.601562 14.226562 13.996094 13.988281 C 13.421875 13.761719 12.8125 13.601562 12.171875 13.53125 C 12.308594 13.148438 12.492188 12.78125 12.71875 12.457031 C 12.863281 12.527344 13.011719 12.597656 13.160156 12.660156 C 13.804688 12.929688 14.488281 13.097656 15.179688 13.097656 C 15.375 13.097656 15.566406 13.082031 15.761719 13.054688 C 15.902344 13.035156 16.050781 13.003906 16.191406 12.957031 C 16.402344 12.886719 16.609375 12.785156 16.773438 12.644531 C 16.859375 12.570312 16.933594 12.492188 16.992188 12.398438 C 17.050781 12.308594 17.097656 12.207031 17.121094 12.09375 C 17.136719 12.023438 17.144531 11.953125 17.144531 11.882812 C 17.144531 11.78125 17.128906 11.683594 17.101562 11.585938 C 17.054688 11.441406 16.984375 11.308594 16.886719 11.191406 C 16.792969 11.070312 16.675781 10.96875 16.546875 10.890625 C 16.398438 10.800781 16.238281 10.742188 16.074219 10.703125 C 15.914062 10.664062 15.742188 10.648438 15.574219 10.648438 C 15.457031 10.648438 15.34375 10.65625 15.230469 10.667969 C 14.804688 10.71875 14.40625 10.839844 14.046875 11.019531 C 13.507812 11.289062 13.046875 11.6875 12.679688 12.167969 C 12.671875 12.175781 12.664062 12.1875 12.660156 12.195312 C 12.242188 11.976562 11.847656 11.71875 11.476562 11.441406 C 11.234375 11.261719 11 11.070312 10.757812 10.886719 C 10.515625 10.703125 10.265625 10.523438 10 10.367188 C 9.746094 10.222656 9.484375 10.101562 9.214844 10.019531 C 8.945312 9.941406 8.667969 9.894531 8.386719 9.894531 C 8.113281 9.894531 7.839844 9.9375 7.5625 10.027344 C 6.957031 10.21875 6.402344 10.566406 5.949219 11.019531 C 5.492188 11.46875 5.136719 12.019531 4.933594 12.621094 C 4.867188 12.8125 4.816406 13.027344 4.816406 13.246094 C 4.816406 13.347656 4.828125 13.453125 4.859375 13.554688 C 4.886719 13.65625 4.929688 13.75 5 13.839844 C 5.015625 13.863281 5.039062 13.886719 5.058594 13.910156 C 5.011719 13.972656 4.96875 14.035156 4.925781 14.089844 C 4.683594 14.425781 4.46875 14.796875 4.316406 15.191406 C 4.160156 15.585938 4.066406 16.003906 4.066406 16.425781 C 4.066406 16.648438 4.089844 16.867188 4.148438 17.085938 C 4.214844 17.359375 4.324219 17.601562 4.460938 17.820312 C 4.671875 18.144531 4.953125 18.40625 5.28125 18.601562 C 5.609375 18.796875 5.984375 18.925781 6.382812 18.992188 C 6.625 19.03125 6.871094 19.050781 7.117188 19.050781 C 7.398438 19.050781 7.675781 19.027344 7.957031 18.996094 C 8.410156 18.945312 8.84375 18.828125 9.277344 18.730469 C 9.707031 18.628906 10.132812 18.546875 10.570312 18.546875 C 10.628906 18.546875 10.6875 18.546875 10.746094 18.550781 C 11.007812 18.5625 11.261719 18.578125 11.519531 18.597656 C 11.539062 18.789062 11.585938 18.976562 11.652344 19.160156 C 11.789062 19.539062 12.011719 19.898438 12.265625 20.21875 C 12.523438 20.539062 12.808594 20.820312 13.085938 21.039062 C 13.332031 21.230469 13.582031 21.414062 13.828125 21.597656 C 14.074219 21.785156 14.3125 21.976562 14.523438 22.191406 C 14.800781 22.476562 14.992188 22.785156 15.117188 23.113281 C 15.242188 23.445312 15.296875 23.800781 15.296875 24.179688 C 15.296875 24.3125 15.292969 24.445312 15.277344 24.585938 C 15.257812 24.78125 15.191406 25.019531 15.082031 25.273438 C 15.058594 25.324219 15.082031 25.386719 15.136719 25.40625 C 15.1875 25.429688 15.246094 25.40625 15.269531 25.351562 C 15.386719 25.082031 15.457031 24.832031 15.480469 24.601562 C 15.496094 24.457031 15.5 24.316406 15.5 24.175781 C 15.5 23.78125 15.441406 23.398438 15.308594 23.039062 C 15.175781 22.683594 14.964844 22.351562 14.667969 22.046875 C 14.445312 21.820312 14.199219 21.625 13.953125 21.433594 C 13.703125 21.246094 13.449219 21.066406 13.210938 20.875 C 12.859375 20.601562 12.480469 20.210938 12.195312 19.773438 C 12.050781 19.550781 11.929688 19.324219 11.84375 19.085938 C 11.785156 18.929688 11.746094 18.773438 11.726562 18.613281 C 11.878906 18.628906 12.035156 18.648438 12.183594 18.671875 C 12.648438 18.75 13.089844 18.878906 13.5 19.109375 C 13.976562 19.378906 14.453125 19.6875 14.957031 19.9375 C 15.210938 20.058594 15.46875 20.167969 15.734375 20.246094 C 16 20.328125 16.273438 20.378906 16.558594 20.386719 C 16.585938 20.386719 16.617188 20.390625 16.644531 20.390625 C 16.851562 20.390625 17.066406 20.363281 17.269531 20.304688 C 17.46875 20.246094 17.664062 20.152344 17.832031 20.019531 C 18.023438 19.867188 18.167969 19.667969 18.261719 19.445312 C 18.355469 19.226562 18.402344 18.984375 18.402344 18.742188 C 18.402344 18.492188 18.351562 18.242188 18.253906 18.011719 C 18.109375 17.675781 17.878906 17.390625 17.601562 17.164062 C 17.324219 16.9375 17 16.761719 16.660156 16.648438 C 16.484375 16.589844 16.308594 16.570312 16.128906 16.570312 C 15.855469 16.570312 15.582031 16.617188 15.3125 16.671875 C 15.042969 16.726562 14.78125 16.777344 14.53125 16.789062 C 14.46875 16.792969 14.410156 16.792969 14.347656 16.792969 C 14.199219 16.792969 14.042969 16.789062 13.882812 16.78125 C 13.71875 16.777344 13.554688 16.769531 13.390625 16.769531 C 13.101562 16.769531 12.816406 16.789062 12.550781 16.867188 C 12.417969 16.90625 12.292969 16.960938 12.179688 17.035156 C 12.0625 17.109375 11.957031 17.203125 11.867188 17.320312 C 11.742188 17.488281 11.652344 17.664062 11.59375 17.84375 C 11.535156 18.019531 11.511719 18.203125 11.511719 18.386719 C 11.511719 18.386719 11.511719 18.390625 11.511719 18.394531 C 11.261719 18.375 11.011719 18.359375 10.757812 18.347656 C 10.695312 18.34375 10.632812 18.34375 10.574219 18.34375 C 10.109375 18.34375 9.667969 18.433594 9.234375 18.535156 C 8.800781 18.632812 8.371094 18.746094 7.9375 18.796875 C 7.664062 18.828125 7.394531 18.847656 7.125 18.847656 C 6.886719 18.847656 6.65625 18.832031 6.421875 18.792969 C 5.921875 18.710938 5.464844 18.519531 5.105469 18.226562 C 4.925781 18.082031 4.769531 17.910156 4.640625 17.710938 C 4.511719 17.511719 4.414062 17.289062 4.351562 17.039062 C 4.296875 16.835938 4.277344 16.632812 4.277344 16.429688 C 4.277344 16.035156 4.363281 15.640625 4.511719 15.265625 C 4.660156 14.890625 4.867188 14.535156 5.097656 14.210938 C 5.136719 14.160156 5.175781 14.101562 5.21875 14.046875 C 5.21875 14.046875 5.21875 14.050781 5.222656 14.050781 C 5.339844 14.136719 5.476562 14.195312 5.617188 14.238281 C 5.761719 14.277344 5.914062 14.292969 6.066406 14.292969 C 6.375 14.292969 6.695312 14.226562 6.980469 14.113281 C 7.125 14.058594 7.257812 13.996094 7.378906 13.921875 C 7.5 13.847656 7.609375 13.765625 7.699219 13.679688 C 7.796875 13.582031 7.875 13.472656 7.929688 13.355469 C 7.984375 13.238281 8.011719 13.109375 8.011719 12.984375 C 8.011719 12.914062 8.003906 12.84375 7.984375 12.777344 C 7.949219 12.679688 7.894531 12.585938 7.8125 12.507812 C 7.726562 12.433594 7.621094 12.375 7.484375 12.339844 C 7.375 12.3125 7.269531 12.300781 7.160156 12.300781 C 7.035156 12.300781 6.914062 12.316406 6.796875 12.351562 C 6.589844 12.410156 6.398438 12.515625 6.214844 12.648438 C 5.945312 12.84375 5.699219 13.101562 5.488281 13.359375 C 5.378906 13.488281 5.28125 13.617188 5.1875 13.742188 C 5.183594 13.734375 5.175781 13.726562 5.171875 13.71875 C 5.121094 13.652344 5.085938 13.578125 5.0625 13.496094 C 5.042969 13.417969 5.03125 13.332031 5.03125 13.246094 C 5.03125 13.0625 5.074219 12.863281 5.132812 12.683594 C 5.324219 12.121094 5.664062 11.59375 6.097656 11.164062 C 6.53125 10.734375 7.058594 10.402344 7.632812 10.222656 C 7.886719 10.140625 8.140625 10.101562 8.394531 10.101562 C 8.652344 10.101562 8.910156 10.140625 9.164062 10.21875 C 9.417969 10.292969 9.664062 10.40625 9.90625 10.542969 C 10.160156 10.695312 10.402344 10.867188 10.640625 11.050781 C 10.882812 11.230469 11.117188 11.421875 11.363281 11.605469 C 11.734375 11.882812 12.132812 12.140625 12.546875 12.363281 C 12.308594 12.714844 12.113281 13.105469 11.972656 13.515625 C 11.808594 13.5 11.640625 13.496094 11.476562 13.496094 C 10.84375 13.496094 10.210938 13.585938 9.605469 13.765625 C 9.003906 13.949219 8.429688 14.226562 7.917969 14.597656 C 7.746094 14.722656 7.578125 14.863281 7.433594 15.03125 C 7.363281 15.113281 7.296875 15.199219 7.242188 15.296875 C 7.1875 15.390625 7.140625 15.492188 7.109375 15.597656 C 7.074219 15.710938 7.0625 15.828125 7.0625 15.941406 C 7.0625 16.09375 7.089844 16.246094 7.140625 16.390625 C 7.214844 16.605469 7.339844 16.808594 7.5 16.976562 C 7.660156 17.144531 7.855469 17.285156 8.070312 17.375 C 8.335938 17.484375 8.613281 17.535156 8.894531 17.535156 C 9.328125 17.535156 9.761719 17.417969 10.152344 17.246094 C 10.40625 17.136719 10.652344 16.996094 10.875 16.824219 C 11.097656 16.652344 11.292969 16.445312 11.441406 16.207031 C 11.554688 16.023438 11.640625 15.832031 11.703125 15.632812 C 11.796875 15.339844 11.851562 15.035156 11.902344 14.734375 C 11.953125 14.433594 12 14.136719 12.082031 13.855469 C 12.09375 13.816406 12.105469 13.777344 12.117188 13.734375 C 12.757812 13.796875 13.359375 13.957031 13.933594 14.179688 C 14.820312 14.527344 15.648438 15.035156 16.449219 15.589844 C 17.253906 16.148438 18.03125 16.753906 18.824219 17.304688 C 19.097656 17.492188 19.40625 17.679688 19.726562 17.820312 C 19.886719 17.890625 20.054688 17.945312 20.226562 17.988281 C 20.394531 18.03125 20.570312 18.054688 20.746094 18.054688 C 20.953125 18.054688 21.164062 18.019531 21.375 17.945312 C 21.546875 17.882812 21.695312 17.789062 21.824219 17.671875 C 22.015625 17.496094 22.152344 17.273438 22.25 17.035156 C 22.34375 16.792969 22.398438 16.542969 22.425781 16.296875 C 22.441406 16.128906 22.449219 15.960938 22.449219 15.796875 C 22.441406 15.148438 22.316406 14.503906 22.082031 13.910156 Z M 1.304688 13.339844 C 1.46875 13.210938 1.671875 13.117188 1.921875 13.0625 C 2.003906 13.042969 2.089844 13.03125 2.175781 13.03125 C 2.308594 13.03125 2.441406 13.054688 2.5625 13.101562 C 2.683594 13.148438 2.792969 13.214844 2.882812 13.308594 C 2.953125 13.382812 3.011719 13.476562 3.050781 13.574219 C 3.089844 13.675781 3.109375 13.785156 3.109375 13.886719 C 3.109375 13.992188 3.089844 14.09375 3.046875 14.183594 C 3.003906 14.277344 2.941406 14.355469 2.851562 14.421875 C 2.789062 14.464844 2.722656 14.5 2.648438 14.519531 C 2.578125 14.539062 2.5 14.550781 2.417969 14.550781 C 2.257812 14.550781 2.085938 14.507812 1.933594 14.429688 C 1.78125 14.355469 1.652344 14.246094 1.5625 14.125 C 1.40625 13.90625 1.285156 13.664062 1.203125 13.417969 C 1.234375 13.390625 1.265625 13.367188 1.304688 13.339844 Z M 4.269531 8.683594 C 4.277344 8.683594 4.285156 8.683594 4.292969 8.683594 C 4.484375 8.683594 4.6875 8.726562 4.859375 8.8125 C 4.945312 8.851562 5.023438 8.90625 5.09375 8.964844 C 5.160156 9.027344 5.21875 9.097656 5.261719 9.175781 C 5.316406 9.269531 5.34375 9.378906 5.34375 9.480469 C 5.34375 9.53125 5.335938 9.582031 5.324219 9.628906 C 5.308594 9.675781 5.285156 9.714844 5.257812 9.75 C 5.21875 9.804688 5.164062 9.84375 5.101562 9.875 C 5.042969 9.90625 4.96875 9.925781 4.898438 9.933594 C 4.871094 9.9375 4.84375 9.9375 4.816406 9.9375 C 4.695312 9.9375 4.570312 9.90625 4.460938 9.851562 C 4.351562 9.796875 4.253906 9.714844 4.179688 9.617188 C 4.117188 9.53125 4.078125 9.449219 4.050781 9.363281 C 4.019531 9.28125 4.007812 9.199219 4.007812 9.113281 C 4.007812 9.019531 4.023438 8.921875 4.058594 8.824219 C 4.070312 8.78125 4.089844 8.738281 4.109375 8.691406 C 4.160156 8.691406 4.214844 8.683594 4.269531 8.683594 Z M 10.300781 7.015625 C 10.445312 7.09375 10.578125 7.199219 10.683594 7.320312 C 10.738281 7.382812 10.78125 7.449219 10.816406 7.519531 C 10.855469 7.589844 10.878906 7.660156 10.894531 7.738281 C 10.90625 7.785156 10.910156 7.835938 10.910156 7.886719 C 10.910156 8.035156 10.867188 8.191406 10.785156 8.320312 C 10.707031 8.453125 10.59375 8.5625 10.460938 8.628906 C 10.351562 8.683594 10.230469 8.710938 10.101562 8.710938 C 9.988281 8.710938 9.871094 8.6875 9.765625 8.644531 C 9.65625 8.601562 9.558594 8.535156 9.480469 8.449219 C 9.394531 8.355469 9.335938 8.261719 9.296875 8.175781 C 9.257812 8.089844 9.242188 8.007812 9.242188 7.929688 C 9.242188 7.863281 9.253906 7.800781 9.273438 7.734375 C 9.3125 7.625 9.382812 7.511719 9.476562 7.410156 C 9.617188 7.253906 9.808594 7.109375 10.011719 6.992188 C 10.050781 6.96875 10.089844 6.949219 10.128906 6.925781 C 10.1875 6.953125 10.246094 6.980469 10.300781 7.015625 Z M 15.980469 8.378906 C 16.058594 8.554688 16.101562 8.726562 16.101562 8.890625 C 16.101562 9.023438 16.074219 9.152344 16.019531 9.277344 C 15.960938 9.402344 15.871094 9.527344 15.742188 9.648438 C 15.660156 9.726562 15.5625 9.785156 15.457031 9.820312 C 15.351562 9.859375 15.242188 9.878906 15.136719 9.878906 C 15.039062 9.878906 14.941406 9.863281 14.855469 9.832031 C 14.789062 9.8125 14.726562 9.78125 14.671875 9.742188 C 14.585938 9.6875 14.519531 9.617188 14.46875 9.527344 C 14.421875 9.441406 14.394531 9.335938 14.394531 9.210938 C 14.394531 9.167969 14.398438 9.121094 14.40625 9.070312 C 14.429688 8.925781 14.496094 8.789062 14.585938 8.667969 C 14.679688 8.546875 14.796875 8.445312 14.933594 8.371094 C 15.15625 8.25 15.390625 8.160156 15.632812 8.105469 C 15.691406 8.089844 15.753906 8.078125 15.8125 8.066406 C 15.878906 8.171875 15.9375 8.277344 15.980469 8.378906 Z M 20.472656 12.472656 C 20.453125 12.625 20.410156 12.777344 20.34375 12.921875 C 20.246094 13.140625 20.089844 13.335938 19.910156 13.472656 C 19.820312 13.542969 19.722656 13.601562 19.621094 13.636719 C 19.519531 13.675781 19.414062 13.695312 19.304688 13.695312 C 19.226562 13.695312 19.144531 13.683594 19.0625 13.660156 C 18.980469 13.636719 18.894531 13.597656 18.808594 13.546875 C 18.675781 13.460938 18.574219 13.351562 18.503906 13.21875 C 18.433594 13.089844 18.398438 12.945312 18.398438 12.796875 C 18.398438 12.648438 18.433594 12.5 18.507812 12.363281 C 18.5625 12.257812 18.628906 12.171875 18.699219 12.097656 C 18.800781 11.992188 18.914062 11.917969 19.042969 11.867188 C 19.164062 11.820312 19.300781 11.796875 19.441406 11.796875 C 19.566406 11.796875 19.699219 11.816406 19.828125 11.851562 C 20.027344 11.902344 20.226562 11.984375 20.40625 12.09375 C 20.4375 12.109375 20.464844 12.128906 20.492188 12.144531 C 20.488281 12.253906 20.480469 12.363281 20.472656 12.472656 Z M 11.710938 18.382812 C 11.710938 18.222656 11.734375 18.0625 11.785156 17.90625 C 11.835938 17.746094 11.914062 17.59375 12.027344 17.445312 C 12.101562 17.34375 12.191406 17.265625 12.285156 17.203125 C 12.433594 17.109375 12.601562 17.050781 12.789062 17.015625 C 12.976562 16.980469 13.179688 16.96875 13.386719 16.96875 C 13.546875 16.96875 13.710938 16.976562 13.871094 16.984375 C 14.03125 16.988281 14.191406 16.996094 14.34375 16.996094 C 14.410156 16.996094 14.472656 16.996094 14.535156 16.992188 C 14.808594 16.980469 15.078125 16.921875 15.347656 16.871094 C 15.613281 16.820312 15.875 16.769531 16.125 16.769531 C 16.285156 16.769531 16.4375 16.789062 16.589844 16.839844 C 16.90625 16.949219 17.210938 17.109375 17.464844 17.320312 C 17.722656 17.535156 17.929688 17.792969 18.0625 18.09375 C 18.148438 18.292969 18.191406 18.519531 18.191406 18.742188 C 18.191406 18.960938 18.152344 19.175781 18.070312 19.367188 C 17.988281 19.5625 17.863281 19.730469 17.699219 19.863281 C 17.554688 19.980469 17.386719 20.058594 17.207031 20.113281 C 17.027344 20.164062 16.832031 20.1875 16.640625 20.1875 C 16.613281 20.1875 16.585938 20.1875 16.5625 20.1875 C 16.296875 20.179688 16.039062 20.132812 15.785156 20.054688 C 15.410156 19.941406 15.042969 19.765625 14.679688 19.566406 C 14.316406 19.367188 13.957031 19.144531 13.597656 18.9375 C 13.160156 18.691406 12.691406 18.558594 12.214844 18.476562 C 12.046875 18.449219 11.875 18.429688 11.707031 18.414062 C 11.710938 18.398438 11.710938 18.390625 11.710938 18.382812 Z M 5.492188 13.664062 C 5.714844 13.378906 5.976562 13.082031 6.257812 12.859375 C 6.398438 12.75 6.546875 12.660156 6.695312 12.597656 C 6.84375 12.535156 7 12.5 7.152344 12.5 C 7.242188 12.5 7.332031 12.511719 7.421875 12.535156 C 7.492188 12.554688 7.554688 12.578125 7.597656 12.609375 C 7.671875 12.65625 7.71875 12.710938 7.75 12.769531 C 7.78125 12.832031 7.800781 12.90625 7.800781 12.980469 C 7.800781 13.070312 7.777344 13.171875 7.734375 13.265625 C 7.6875 13.359375 7.625 13.453125 7.546875 13.53125 C 7.472656 13.605469 7.378906 13.675781 7.265625 13.742188 C 7.101562 13.84375 6.902344 13.929688 6.695312 13.992188 C 6.488281 14.050781 6.265625 14.085938 6.058594 14.085938 C 5.875 14.085938 5.695312 14.058594 5.542969 14 C 5.46875 13.96875 5.398438 13.929688 5.332031 13.882812 C 5.332031 13.882812 5.332031 13.882812 5.328125 13.878906 C 5.382812 13.808594 5.4375 13.738281 5.492188 13.664062 Z M 13.222656 11.859375 C 13.496094 11.59375 13.800781 11.371094 14.144531 11.199219 C 14.484375 11.03125 14.855469 10.914062 15.257812 10.867188 C 15.363281 10.855469 15.472656 10.847656 15.582031 10.847656 C 15.738281 10.847656 15.890625 10.863281 16.035156 10.894531 C 16.183594 10.929688 16.320312 10.984375 16.449219 11.058594 C 16.59375 11.144531 16.71875 11.269531 16.808594 11.414062 C 16.851562 11.488281 16.886719 11.5625 16.914062 11.640625 C 16.9375 11.71875 16.949219 11.796875 16.949219 11.878906 C 16.949219 11.933594 16.941406 11.984375 16.929688 12.039062 C 16.902344 12.15625 16.847656 12.261719 16.773438 12.355469 C 16.71875 12.421875 16.652344 12.484375 16.574219 12.539062 C 16.460938 12.625 16.324219 12.6875 16.183594 12.742188 C 16.039062 12.792969 15.886719 12.828125 15.738281 12.847656 C 15.554688 12.875 15.367188 12.886719 15.183594 12.886719 C 14.523438 12.886719 13.871094 12.726562 13.242188 12.464844 C 13.109375 12.410156 12.976562 12.347656 12.84375 12.285156 C 12.960938 12.136719 13.089844 11.992188 13.222656 11.859375 Z M 11.875 13.792969 C 11.765625 14.1875 11.71875 14.597656 11.644531 14.988281 C 11.605469 15.183594 11.5625 15.378906 11.503906 15.5625 C 11.441406 15.746094 11.367188 15.925781 11.261719 16.089844 C 11.125 16.308594 10.945312 16.496094 10.742188 16.65625 C 10.535156 16.816406 10.304688 16.945312 10.0625 17.054688 C 9.691406 17.21875 9.28125 17.324219 8.882812 17.324219 C 8.625 17.324219 8.375 17.28125 8.140625 17.183594 C 7.894531 17.078125 7.667969 16.894531 7.507812 16.671875 C 7.429688 16.5625 7.367188 16.441406 7.320312 16.316406 C 7.277344 16.195312 7.253906 16.0625 7.253906 15.9375 C 7.253906 15.839844 7.269531 15.746094 7.292969 15.652344 C 7.320312 15.5625 7.359375 15.476562 7.40625 15.394531 C 7.476562 15.269531 7.570312 15.15625 7.675781 15.050781 C 7.78125 14.945312 7.902344 14.851562 8.023438 14.761719 C 8.515625 14.402344 9.070312 14.136719 9.652344 13.960938 C 10.238281 13.785156 10.851562 13.695312 11.464844 13.699219 C 11.609375 13.699219 11.753906 13.703125 11.898438 13.710938 C 11.890625 13.738281 11.882812 13.761719 11.875 13.792969 Z M 11.875 13.792969 " fill-opacity="1" fill-rule="nonzero"/></g><g clip-path="url(#4e0e30c5cc)"><path fill="#000000" d="M 14.085938 25.976562 C 14.179688 25.921875 14.28125 25.867188 14.382812 25.820312 C 14.488281 25.777344 14.59375 25.734375 14.703125 25.699219 C 14.71875 25.691406 14.730469 25.6875 14.746094 25.683594 C 14.757812 25.679688 14.773438 25.675781 14.789062 25.671875 C 14.800781 25.667969 14.816406 25.664062 14.828125 25.660156 C 14.84375 25.65625 14.855469 25.652344 14.871094 25.648438 C 14.898438 25.640625 14.925781 25.632812 14.957031 25.625 C 14.96875 25.621094 14.984375 25.621094 15 25.617188 C 15.011719 25.613281 15.027344 25.609375 15.042969 25.605469 L 15.0625 25.601562 C 15.070312 25.601562 15.078125 25.597656 15.085938 25.597656 C 15.101562 25.59375 15.113281 25.589844 15.128906 25.589844 C 15.144531 25.585938 15.160156 25.582031 15.171875 25.582031 C 15.1875 25.578125 15.203125 25.574219 15.21875 25.574219 C 15.230469 25.570312 15.246094 25.570312 15.261719 25.566406 L 15.285156 25.5625 L 15.304688 25.558594 C 15.320312 25.558594 15.335938 25.554688 15.351562 25.554688 C 15.367188 25.550781 15.378906 25.550781 15.394531 25.546875 C 15.425781 25.542969 15.457031 25.542969 15.484375 25.539062 C 15.5 25.539062 15.515625 25.535156 15.53125 25.535156 C 15.546875 25.535156 15.5625 25.53125 15.578125 25.53125 C 15.59375 25.53125 15.609375 25.53125 15.625 25.527344 L 15.667969 25.527344 C 15.683594 25.527344 15.699219 25.523438 15.714844 25.523438 C 15.730469 25.523438 15.746094 25.523438 15.761719 25.523438 C 15.792969 25.523438 15.824219 25.523438 15.855469 25.523438 C 15.871094 25.523438 15.886719 25.523438 15.902344 25.523438 C 15.917969 25.523438 15.933594 25.523438 15.949219 25.523438 C 15.964844 25.523438 15.980469 25.523438 15.996094 25.523438 L 16.019531 25.523438 L 16.042969 25.527344 C 16.0625 25.527344 16.078125 25.527344 16.09375 25.527344 C 16.109375 25.527344 16.125 25.527344 16.140625 25.53125 C 16.265625 25.535156 16.394531 25.550781 16.527344 25.566406 C 16.65625 25.582031 16.785156 25.605469 16.917969 25.628906 C 16.933594 25.632812 16.953125 25.636719 16.96875 25.640625 C 16.984375 25.640625 17 25.644531 17.019531 25.648438 C 17.035156 25.652344 17.050781 25.65625 17.066406 25.660156 L 17.09375 25.664062 L 17.117188 25.671875 C 17.132812 25.675781 17.148438 25.675781 17.167969 25.679688 C 17.183594 25.683594 17.199219 25.6875 17.214844 25.691406 C 17.25 25.699219 17.285156 25.707031 17.316406 25.71875 C 17.449219 25.75 17.582031 25.785156 17.71875 25.824219 C 17.851562 25.863281 17.988281 25.90625 18.121094 25.953125 C 18.257812 25.996094 18.394531 26.046875 18.53125 26.09375 C 18.667969 26.144531 18.800781 26.199219 18.9375 26.25 C 19.078125 26.304688 19.214844 26.359375 19.351562 26.417969 C 19.902344 26.644531 20.457031 26.894531 21.015625 27.140625 C 21.296875 27.265625 21.582031 27.386719 21.867188 27.503906 C 22.148438 27.621094 22.4375 27.734375 22.726562 27.835938 C 22.761719 27.847656 22.796875 27.859375 22.832031 27.871094 C 22.867188 27.886719 22.90625 27.898438 22.941406 27.910156 C 23.011719 27.933594 23.085938 27.957031 23.160156 27.980469 C 23.175781 27.984375 23.195312 27.988281 23.210938 27.996094 C 23.230469 28 23.25 28.007812 23.265625 28.011719 C 23.285156 28.015625 23.304688 28.023438 23.320312 28.027344 C 23.339844 28.035156 23.359375 28.039062 23.375 28.042969 C 23.414062 28.054688 23.449219 28.066406 23.488281 28.074219 C 23.523438 28.085938 23.558594 28.097656 23.597656 28.105469 C 23.890625 28.1875 24.183594 28.265625 24.476562 28.328125 C 24.773438 28.394531 25.070312 28.453125 25.363281 28.5 C 25.660156 28.546875 25.957031 28.582031 26.253906 28.605469 C 26.507812 28.625 26.761719 28.636719 27.011719 28.636719 C 27.265625 28.632812 27.511719 28.625 27.753906 28.597656 C 27.996094 28.574219 28.234375 28.539062 28.46875 28.488281 C 28.699219 28.441406 28.925781 28.378906 29.144531 28.300781 C 29.253906 28.265625 29.363281 28.222656 29.46875 28.175781 C 29.496094 28.164062 29.523438 28.15625 29.550781 28.144531 C 29.574219 28.132812 29.601562 28.121094 29.628906 28.105469 C 29.679688 28.082031 29.730469 28.058594 29.78125 28.03125 C 29.984375 27.929688 30.175781 27.804688 30.351562 27.660156 C 30.523438 27.515625 30.679688 27.347656 30.804688 27.152344 C 30.808594 27.144531 30.8125 27.136719 30.816406 27.132812 L 30.828125 27.113281 C 30.832031 27.101562 30.839844 27.089844 30.847656 27.074219 C 30.855469 27.0625 30.863281 27.050781 30.871094 27.035156 L 30.890625 26.996094 C 30.898438 26.984375 30.902344 26.972656 30.910156 26.957031 L 30.921875 26.9375 C 30.925781 26.929688 30.925781 26.925781 30.929688 26.917969 L 30.949219 26.878906 L 30.964844 26.835938 C 30.988281 26.78125 31.007812 26.722656 31.023438 26.664062 L 31.03125 26.640625 L 31.035156 26.617188 L 31.042969 26.597656 C 31.042969 26.589844 31.046875 26.582031 31.046875 26.574219 L 31.058594 26.527344 C 31.058594 26.519531 31.0625 26.511719 31.0625 26.503906 L 31.066406 26.480469 C 31.078125 26.417969 31.085938 26.355469 31.09375 26.289062 C 31.09375 26.28125 31.09375 26.273438 31.09375 26.265625 L 31.097656 26.242188 L 31.097656 26.207031 L 31.101562 26.195312 L 31.101562 26.09375 C 31.101562 26.078125 31.101562 26.0625 31.101562 26.046875 C 31.101562 26.027344 31.101562 26.011719 31.101562 25.996094 C 31.101562 25.976562 31.101562 25.960938 31.097656 25.945312 C 31.097656 25.929688 31.097656 25.910156 31.09375 25.894531 C 31.089844 25.828125 31.082031 25.757812 31.074219 25.691406 C 31.03125 25.417969 30.945312 25.144531 30.828125 24.886719 C 30.710938 24.628906 30.558594 24.382812 30.382812 24.167969 C 30.207031 23.953125 30.007812 23.769531 29.796875 23.621094 C 29.585938 23.472656 29.363281 23.367188 29.140625 23.304688 L 29.117188 23.296875 L 29.097656 23.292969 C 29.082031 23.289062 29.070312 23.285156 29.054688 23.28125 C 29.042969 23.277344 29.027344 23.273438 29.015625 23.273438 L 28.992188 23.265625 C 28.988281 23.265625 28.980469 23.265625 28.972656 23.261719 C 28.945312 23.257812 28.917969 23.253906 28.890625 23.25 C 28.875 23.246094 28.863281 23.246094 28.847656 23.242188 C 28.835938 23.242188 28.820312 23.242188 28.808594 23.238281 C 28.78125 23.238281 28.753906 23.234375 28.726562 23.234375 C 28.710938 23.234375 28.699219 23.234375 28.683594 23.234375 C 28.671875 23.234375 28.660156 23.230469 28.644531 23.230469 C 28.632812 23.230469 28.617188 23.234375 28.605469 23.234375 L 28.566406 23.234375 C 28.550781 23.234375 28.539062 23.234375 28.527344 23.238281 C 28.519531 23.238281 28.511719 23.238281 28.503906 23.238281 L 28.484375 23.238281 C 28.382812 23.25 28.28125 23.269531 28.183594 23.296875 C 28.085938 23.328125 27.992188 23.367188 27.902344 23.414062 C 27.878906 23.425781 27.859375 23.4375 27.835938 23.449219 C 27.828125 23.457031 27.816406 23.464844 27.804688 23.46875 C 27.796875 23.476562 27.785156 23.484375 27.773438 23.492188 C 27.761719 23.496094 27.753906 23.503906 27.742188 23.511719 L 27.726562 23.523438 C 27.722656 23.527344 27.71875 23.53125 27.710938 23.535156 C 27.703125 23.542969 27.691406 23.550781 27.683594 23.558594 L 27.667969 23.570312 C 27.664062 23.574219 27.660156 23.578125 27.652344 23.582031 C 27.574219 23.644531 27.503906 23.714844 27.4375 23.796875 C 27.574219 23.613281 27.746094 23.464844 27.945312 23.359375 C 27.957031 23.355469 27.96875 23.347656 27.980469 23.339844 C 27.996094 23.335938 28.007812 23.328125 28.019531 23.324219 C 28.046875 23.3125 28.070312 23.300781 28.097656 23.289062 C 28.101562 23.289062 28.105469 23.289062 28.105469 23.285156 L 28.117188 23.28125 L 28.136719 23.273438 L 28.15625 23.269531 L 28.167969 23.265625 L 28.175781 23.261719 C 28.203125 23.253906 28.230469 23.242188 28.257812 23.234375 L 28.28125 23.230469 L 28.289062 23.226562 L 28.300781 23.226562 C 28.316406 23.222656 28.328125 23.21875 28.34375 23.214844 C 28.351562 23.214844 28.359375 23.210938 28.363281 23.210938 L 28.386719 23.207031 C 28.398438 23.203125 28.414062 23.203125 28.429688 23.199219 C 28.445312 23.195312 28.457031 23.195312 28.472656 23.191406 L 28.496094 23.1875 L 28.515625 23.1875 C 28.53125 23.1875 28.546875 23.183594 28.5625 23.183594 C 28.574219 23.183594 28.589844 23.179688 28.605469 23.179688 L 28.628906 23.179688 C 28.636719 23.179688 28.644531 23.179688 28.652344 23.179688 C 28.667969 23.179688 28.679688 23.179688 28.695312 23.179688 C 28.710938 23.179688 28.726562 23.179688 28.742188 23.179688 L 28.789062 23.179688 C 28.804688 23.183594 28.820312 23.183594 28.835938 23.183594 C 28.84375 23.183594 28.851562 23.183594 28.859375 23.1875 L 28.882812 23.1875 C 28.914062 23.191406 28.945312 23.195312 28.976562 23.203125 C 28.984375 23.203125 28.992188 23.203125 29 23.207031 L 29.046875 23.214844 C 29.050781 23.214844 29.054688 23.214844 29.058594 23.214844 L 29.070312 23.21875 C 29.085938 23.222656 29.101562 23.226562 29.117188 23.230469 C 29.121094 23.230469 29.125 23.230469 29.128906 23.234375 L 29.140625 23.238281 L 29.164062 23.242188 L 29.210938 23.257812 C 29.230469 23.261719 29.246094 23.265625 29.261719 23.269531 L 29.285156 23.277344 L 29.332031 23.296875 L 29.34375 23.300781 C 29.347656 23.300781 29.351562 23.304688 29.355469 23.304688 C 29.371094 23.3125 29.386719 23.316406 29.40625 23.324219 C 29.421875 23.332031 29.4375 23.335938 29.453125 23.34375 C 29.460938 23.347656 29.46875 23.351562 29.476562 23.355469 L 29.5 23.367188 L 29.523438 23.375 L 29.535156 23.382812 L 29.546875 23.386719 C 29.5625 23.394531 29.578125 23.402344 29.59375 23.414062 C 29.609375 23.421875 29.625 23.429688 29.640625 23.4375 C 29.65625 23.445312 29.671875 23.457031 29.6875 23.464844 L 29.714844 23.476562 C 29.722656 23.480469 29.726562 23.488281 29.738281 23.492188 C 29.800781 23.53125 29.859375 23.570312 29.921875 23.613281 C 29.980469 23.660156 30.042969 23.707031 30.101562 23.757812 C 30.160156 23.808594 30.214844 23.859375 30.273438 23.917969 C 30.328125 23.972656 30.382812 24.03125 30.433594 24.09375 L 30.453125 24.117188 C 30.460938 24.125 30.464844 24.132812 30.472656 24.140625 C 30.484375 24.15625 30.5 24.171875 30.511719 24.1875 C 30.523438 24.203125 30.535156 24.21875 30.546875 24.234375 C 30.554688 24.242188 30.5625 24.253906 30.566406 24.261719 L 30.585938 24.285156 C 30.632812 24.351562 30.679688 24.417969 30.722656 24.488281 C 30.769531 24.558594 30.808594 24.632812 30.847656 24.707031 C 30.886719 24.78125 30.925781 24.855469 30.957031 24.929688 C 30.992188 25.007812 31.023438 25.085938 31.050781 25.164062 C 31.078125 25.242188 31.105469 25.324219 31.125 25.402344 C 31.148438 25.484375 31.167969 25.566406 31.183594 25.644531 L 31.1875 25.675781 L 31.191406 25.691406 C 31.191406 25.695312 31.191406 25.703125 31.191406 25.707031 C 31.195312 25.726562 31.199219 25.746094 31.203125 25.769531 C 31.203125 25.789062 31.207031 25.808594 31.210938 25.828125 C 31.210938 25.847656 31.214844 25.867188 31.21875 25.890625 C 31.226562 25.96875 31.230469 26.050781 31.230469 26.128906 L 31.230469 26.160156 C 31.230469 26.171875 31.230469 26.179688 31.230469 26.191406 C 31.230469 26.210938 31.230469 26.230469 31.230469 26.25 C 31.226562 26.269531 31.226562 26.289062 31.226562 26.308594 C 31.226562 26.316406 31.222656 26.328125 31.222656 26.335938 L 31.222656 26.367188 C 31.214844 26.445312 31.203125 26.519531 31.1875 26.59375 C 31.175781 26.671875 31.15625 26.742188 31.136719 26.8125 C 31.125 26.847656 31.113281 26.882812 31.101562 26.917969 C 31.09375 26.933594 31.085938 26.953125 31.082031 26.96875 C 31.078125 26.976562 31.074219 26.984375 31.070312 26.992188 L 31.058594 27.019531 C 31.03125 27.082031 31 27.148438 30.964844 27.207031 C 30.894531 27.332031 30.816406 27.441406 30.730469 27.546875 C 30.640625 27.648438 30.546875 27.742188 30.445312 27.832031 C 30.34375 27.917969 30.238281 27.996094 30.125 28.066406 C 30.015625 28.136719 29.898438 28.203125 29.78125 28.261719 C 29.765625 28.269531 29.75 28.273438 29.734375 28.28125 C 29.722656 28.289062 29.707031 28.296875 29.691406 28.304688 C 29.675781 28.3125 29.660156 28.316406 29.644531 28.324219 C 29.632812 28.332031 29.617188 28.339844 29.601562 28.34375 C 29.585938 28.351562 29.570312 28.359375 29.554688 28.367188 C 29.539062 28.371094 29.523438 28.378906 29.507812 28.386719 C 29.496094 28.390625 29.480469 28.398438 29.464844 28.40625 C 29.449219 28.410156 29.433594 28.417969 29.417969 28.425781 C 29.292969 28.472656 29.167969 28.519531 29.039062 28.558594 C 28.78125 28.640625 28.515625 28.707031 28.242188 28.753906 C 27.96875 28.800781 27.691406 28.828125 27.40625 28.84375 C 27.121094 28.859375 26.832031 28.855469 26.539062 28.84375 C 26.246094 28.828125 25.949219 28.796875 25.648438 28.757812 C 25.347656 28.71875 25.046875 28.664062 24.742188 28.601562 C 24.480469 28.546875 24.214844 28.484375 23.953125 28.414062 C 23.824219 28.378906 23.691406 28.34375 23.5625 28.308594 C 23.53125 28.296875 23.496094 28.289062 23.464844 28.277344 L 23.414062 28.265625 L 23.367188 28.25 C 23.335938 28.238281 23.300781 28.230469 23.269531 28.21875 C 23.238281 28.210938 23.203125 28.199219 23.171875 28.191406 C 23.105469 28.171875 23.042969 28.148438 22.976562 28.128906 C 22.910156 28.105469 22.847656 28.082031 22.78125 28.058594 C 22.652344 28.015625 22.523438 27.96875 22.394531 27.917969 C 22.265625 27.867188 22.140625 27.816406 22.011719 27.765625 C 21.886719 27.710938 21.757812 27.660156 21.632812 27.605469 C 21.378906 27.496094 21.128906 27.382812 20.878906 27.269531 C 20.632812 27.15625 20.382812 27.046875 20.136719 26.933594 C 19.890625 26.820312 19.648438 26.710938 19.40625 26.605469 C 19.160156 26.5 18.917969 26.398438 18.679688 26.304688 C 18.4375 26.207031 18.199219 26.117188 17.957031 26.039062 C 17.71875 25.957031 17.484375 25.882812 17.246094 25.824219 C 17.011719 25.761719 16.777344 25.710938 16.546875 25.675781 C 16.433594 25.65625 16.316406 25.644531 16.203125 25.632812 L 16.183594 25.628906 L 16.160156 25.628906 C 16.148438 25.628906 16.132812 25.625 16.121094 25.625 C 16.089844 25.621094 16.0625 25.621094 16.035156 25.617188 C 16.007812 25.617188 15.976562 25.617188 15.949219 25.613281 C 15.9375 25.613281 15.921875 25.613281 15.910156 25.613281 L 15.867188 25.613281 C 15.753906 25.609375 15.644531 25.609375 15.535156 25.617188 C 15.523438 25.617188 15.507812 25.617188 15.496094 25.617188 C 15.480469 25.621094 15.46875 25.621094 15.453125 25.621094 C 15.425781 25.621094 15.402344 25.625 15.375 25.628906 C 15.347656 25.628906 15.320312 25.632812 15.292969 25.636719 C 15.28125 25.636719 15.265625 25.640625 15.253906 25.640625 L 15.234375 25.644531 L 15.214844 25.644531 C 15.003906 25.675781 14.796875 25.722656 14.601562 25.785156 C 14.40625 25.851562 14.21875 25.933594 14.042969 26.03125 C 13.867188 26.128906 13.699219 26.242188 13.546875 26.367188 C 13.710938 26.222656 13.890625 26.089844 14.085938 25.976562 " fill-opacity="1" fill-rule="nonzero"/></g><g clip-path="url(#d0cf3ea61a)"><path fill="#000000" d="M 32.636719 16.957031 C 32.636719 16.957031 31.585938 17.664062 30.585938 16.96875 C 30.585938 16.96875 31.816406 17.039062 32.636719 16.957031 Z M 31.597656 18.515625 C 31.574219 18.527344 31.539062 18.542969 31.492188 18.566406 C 31.449219 18.585938 31.394531 18.605469 31.332031 18.628906 C 31.316406 18.636719 31.300781 18.640625 31.285156 18.648438 C 31.269531 18.652344 31.253906 18.660156 31.234375 18.664062 C 31.199219 18.679688 31.164062 18.691406 31.128906 18.703125 C 31.054688 18.726562 30.972656 18.75 30.886719 18.765625 C 30.878906 18.769531 30.867188 18.773438 30.855469 18.773438 C 30.847656 18.777344 30.835938 18.777344 30.824219 18.78125 C 30.804688 18.785156 30.78125 18.789062 30.761719 18.792969 C 30.714844 18.800781 30.671875 18.808594 30.628906 18.8125 C 30.539062 18.824219 30.445312 18.828125 30.355469 18.820312 C 30.261719 18.816406 30.171875 18.804688 30.082031 18.78125 C 30.097656 18.777344 30.113281 18.773438 30.128906 18.769531 L 30.179688 18.757812 L 30.277344 18.738281 C 30.34375 18.722656 30.40625 18.710938 30.472656 18.695312 C 30.539062 18.683594 30.601562 18.667969 30.667969 18.65625 C 30.730469 18.644531 30.796875 18.632812 30.863281 18.621094 C 30.925781 18.609375 30.992188 18.597656 31.054688 18.585938 L 31.152344 18.570312 C 31.167969 18.566406 31.183594 18.5625 31.203125 18.5625 L 31.25 18.554688 C 31.378906 18.53125 31.507812 18.515625 31.636719 18.496094 C 31.636719 18.496094 31.621094 18.503906 31.597656 18.515625 Z M 26.277344 24.628906 C 26.253906 24.660156 26.210938 24.679688 26.167969 24.671875 C 26.09375 24.660156 26.058594 24.589844 26.09375 24.535156 C 26.117188 24.5 26.160156 24.484375 26.203125 24.492188 C 26.277344 24.503906 26.3125 24.570312 26.277344 24.628906 Z M 35.484375 12.875 C 35.484375 12.867188 35.480469 12.855469 35.472656 12.847656 C 35.464844 12.839844 35.453125 12.832031 35.441406 12.824219 C 35.367188 12.785156 35.289062 12.753906 35.207031 12.722656 L 35.191406 12.714844 C 35.1875 12.714844 35.179688 12.710938 35.175781 12.710938 L 35.144531 12.699219 L 35.113281 12.691406 C 35.105469 12.6875 35.101562 12.6875 35.09375 12.683594 L 35.078125 12.679688 C 35.058594 12.671875 35.035156 12.667969 35.015625 12.660156 C 34.996094 12.65625 34.972656 12.648438 34.953125 12.644531 C 34.785156 12.601562 34.617188 12.570312 34.449219 12.550781 C 34.28125 12.535156 34.117188 12.527344 33.953125 12.53125 C 33.910156 12.53125 33.867188 12.535156 33.828125 12.535156 C 33.789062 12.539062 33.746094 12.542969 33.707031 12.542969 C 33.664062 12.546875 33.625 12.550781 33.582031 12.558594 L 33.523438 12.5625 L 33.460938 12.570312 C 33.460938 12.570312 33.445312 12.574219 33.414062 12.578125 C 33.394531 12.582031 33.375 12.585938 33.351562 12.589844 C 33.339844 12.59375 33.328125 12.597656 33.3125 12.597656 C 33.300781 12.601562 33.285156 12.605469 33.269531 12.609375 C 33.210938 12.628906 33.136719 12.648438 33.054688 12.683594 C 33.035156 12.691406 33.011719 12.699219 32.988281 12.707031 C 32.980469 12.714844 32.96875 12.71875 32.957031 12.722656 C 32.945312 12.726562 32.933594 12.734375 32.921875 12.738281 C 32.878906 12.761719 32.832031 12.785156 32.78125 12.808594 C 32.734375 12.835938 32.683594 12.867188 32.632812 12.902344 C 32.605469 12.917969 32.582031 12.933594 32.554688 12.953125 C 32.53125 12.972656 32.503906 12.992188 32.476562 13.011719 C 32.464844 13.019531 32.453125 13.03125 32.4375 13.039062 C 32.425781 13.050781 32.414062 13.0625 32.398438 13.074219 C 32.375 13.09375 32.347656 13.117188 32.320312 13.140625 C 32.308594 13.152344 32.296875 13.164062 32.28125 13.175781 C 32.28125 13.179688 32.277344 13.179688 32.273438 13.183594 C 32.269531 13.1875 32.265625 13.191406 32.261719 13.195312 C 32.257812 13.199219 32.25 13.207031 32.246094 13.210938 C 32.21875 13.238281 32.195312 13.265625 32.167969 13.292969 C 32.117188 13.34375 32.066406 13.402344 32.019531 13.464844 C 32.007812 13.480469 31.996094 13.496094 31.984375 13.511719 C 31.976562 13.519531 31.972656 13.527344 31.964844 13.535156 C 31.960938 13.542969 31.953125 13.550781 31.949219 13.558594 C 31.925781 13.589844 31.902344 13.625 31.878906 13.660156 C 31.867188 13.675781 31.859375 13.695312 31.847656 13.710938 C 31.839844 13.71875 31.835938 13.730469 31.828125 13.738281 C 31.824219 13.746094 31.820312 13.757812 31.8125 13.765625 C 31.792969 13.800781 31.773438 13.839844 31.753906 13.878906 C 31.742188 13.894531 31.734375 13.914062 31.722656 13.933594 C 31.71875 13.945312 31.710938 13.953125 31.707031 13.964844 C 31.703125 13.972656 31.699219 13.984375 31.695312 13.996094 C 31.675781 14.035156 31.65625 14.074219 31.640625 14.117188 C 31.640625 14.117188 31.636719 14.101562 31.632812 14.066406 C 31.632812 14.046875 31.636719 14.023438 31.640625 13.992188 C 31.640625 13.976562 31.644531 13.960938 31.648438 13.941406 C 31.648438 13.929688 31.652344 13.921875 31.652344 13.910156 C 31.65625 13.90625 31.65625 13.902344 31.65625 13.894531 C 31.65625 13.890625 31.660156 13.886719 31.660156 13.878906 C 31.671875 13.835938 31.6875 13.785156 31.710938 13.722656 C 31.722656 13.691406 31.734375 13.660156 31.75 13.625 C 31.765625 13.59375 31.78125 13.554688 31.800781 13.515625 C 31.820312 13.476562 31.84375 13.4375 31.867188 13.394531 C 31.894531 13.351562 31.921875 13.304688 31.949219 13.257812 C 31.964844 13.234375 31.980469 13.207031 32 13.183594 C 32.015625 13.15625 32.035156 13.132812 32.054688 13.105469 C 32.070312 13.078125 32.089844 13.050781 32.113281 13.023438 C 32.121094 13.011719 32.132812 12.996094 32.144531 12.980469 C 32.15625 12.96875 32.167969 12.953125 32.179688 12.9375 L 32.136719 12.957031 C 32.128906 12.960938 32.121094 12.964844 32.117188 12.964844 L 32.097656 12.976562 L 32.015625 13.011719 L 31.933594 13.050781 C 31.921875 13.058594 31.90625 13.0625 31.894531 13.070312 L 31.855469 13.089844 L 31.777344 13.132812 L 31.738281 13.152344 L 31.71875 13.164062 C 31.710938 13.164062 31.703125 13.167969 31.699219 13.171875 C 31.648438 13.199219 31.597656 13.230469 31.546875 13.257812 L 31.46875 13.304688 L 31.394531 13.347656 L 31.320312 13.394531 C 31.296875 13.410156 31.273438 13.425781 31.25 13.441406 C 31.199219 13.472656 31.152344 13.503906 31.105469 13.539062 L 31.070312 13.5625 L 31.054688 13.574219 L 31.035156 13.585938 L 30.96875 13.636719 C 30.601562 13.90625 30.269531 14.199219 29.96875 14.511719 C 29.960938 14.515625 29.957031 14.523438 29.949219 14.53125 L 29.933594 14.550781 C 29.921875 14.5625 29.910156 14.574219 29.898438 14.589844 C 29.875 14.617188 29.851562 14.640625 29.832031 14.667969 C 29.808594 14.695312 29.789062 14.722656 29.765625 14.753906 C 29.761719 14.757812 29.757812 14.765625 29.75 14.773438 L 29.738281 14.796875 C 29.726562 14.808594 29.71875 14.824219 29.707031 14.839844 C 29.671875 14.894531 29.636719 14.953125 29.605469 15.015625 L 29.59375 15.039062 C 29.585938 15.042969 29.585938 15.050781 29.582031 15.058594 C 29.574219 15.074219 29.566406 15.089844 29.558594 15.105469 C 29.542969 15.136719 29.53125 15.167969 29.519531 15.199219 C 29.503906 15.230469 29.492188 15.261719 29.480469 15.292969 C 29.476562 15.308594 29.472656 15.324219 29.464844 15.339844 C 29.464844 15.347656 29.460938 15.355469 29.457031 15.363281 L 29.449219 15.386719 C 29.433594 15.449219 29.414062 15.515625 29.402344 15.578125 C 29.398438 15.609375 29.390625 15.640625 29.386719 15.675781 C 29.382812 15.691406 29.382812 15.707031 29.378906 15.722656 C 29.378906 15.738281 29.375 15.753906 29.375 15.773438 C 29.367188 15.835938 29.363281 15.902344 29.363281 15.964844 C 29.363281 16.003906 29.367188 16.042969 29.367188 16.082031 C 29.367188 16.101562 29.367188 16.121094 29.371094 16.136719 C 29.371094 16.140625 29.371094 16.148438 29.371094 16.152344 C 29.371094 16.15625 29.371094 16.160156 29.371094 16.164062 C 29.371094 16.175781 29.371094 16.183594 29.371094 16.191406 C 29.378906 16.261719 29.386719 16.332031 29.398438 16.390625 C 29.421875 16.511719 29.453125 16.609375 29.5 16.664062 C 29.5 16.664062 29.488281 16.65625 29.460938 16.632812 C 29.4375 16.609375 29.402344 16.566406 29.359375 16.496094 C 29.316406 16.425781 29.265625 16.328125 29.210938 16.191406 C 29.199219 16.15625 29.183594 16.117188 29.171875 16.078125 C 29.15625 16.039062 29.144531 15.996094 29.128906 15.949219 C 29.101562 15.859375 29.078125 15.753906 29.050781 15.636719 C 28.703125 16.136719 28.417969 16.644531 28.179688 17.144531 C 27.9375 17.644531 27.746094 18.136719 27.585938 18.605469 C 27.574219 18.644531 27.5625 18.683594 27.550781 18.726562 C 27.539062 18.765625 27.527344 18.804688 27.519531 18.847656 C 27.503906 18.925781 27.488281 19.007812 27.480469 19.089844 C 27.476562 19.128906 27.472656 19.171875 27.472656 19.210938 C 27.46875 19.234375 27.46875 19.253906 27.46875 19.273438 C 27.46875 19.285156 27.46875 19.292969 27.46875 19.304688 L 27.46875 19.335938 C 27.46875 19.417969 27.472656 19.5 27.484375 19.582031 C 27.492188 19.644531 27.5 19.707031 27.507812 19.765625 C 27.515625 19.792969 27.519531 19.824219 27.523438 19.851562 C 27.53125 19.878906 27.535156 19.90625 27.542969 19.929688 C 27.566406 20.035156 27.597656 20.117188 27.636719 20.171875 C 27.636719 20.171875 27.59375 20.121094 27.53125 20.023438 C 27.5 19.976562 27.464844 19.917969 27.421875 19.847656 C 27.410156 19.828125 27.402344 19.8125 27.390625 19.792969 C 27.378906 19.773438 27.367188 19.753906 27.359375 19.734375 C 27.335938 19.691406 27.3125 19.648438 27.292969 19.605469 C 27.257812 19.726562 27.230469 19.847656 27.203125 19.964844 C 27.1875 20.027344 27.175781 20.085938 27.164062 20.140625 C 27.15625 20.171875 27.152344 20.199219 27.144531 20.226562 C 27.136719 20.253906 27.132812 20.285156 27.125 20.3125 C 27.105469 20.425781 27.082031 20.535156 27.0625 20.640625 C 27.058594 20.664062 27.054688 20.691406 27.046875 20.71875 C 27.046875 20.722656 27.046875 20.730469 27.042969 20.738281 C 27.042969 20.742188 27.042969 20.75 27.042969 20.757812 C 27.039062 20.769531 27.035156 20.78125 27.035156 20.796875 C 27.027344 20.847656 27.019531 20.898438 27.007812 20.945312 C 26.992188 21.046875 26.976562 21.140625 26.964844 21.234375 C 26.964844 21.242188 26.960938 21.253906 26.960938 21.265625 C 26.957031 21.277344 26.957031 21.289062 26.953125 21.300781 C 26.953125 21.324219 26.949219 21.34375 26.945312 21.367188 C 26.941406 21.410156 26.933594 21.453125 26.929688 21.496094 C 26.917969 21.582031 26.910156 21.660156 26.902344 21.734375 C 26.898438 21.753906 26.894531 21.773438 26.894531 21.792969 C 26.890625 21.808594 26.890625 21.828125 26.886719 21.847656 C 26.886719 21.882812 26.882812 21.917969 26.878906 21.949219 C 26.878906 21.957031 26.875 21.960938 26.875 21.964844 L 26.734375 22.328125 L 26.722656 22.355469 L 26.710938 22.386719 L 26.691406 22.445312 L 26.601562 22.6875 L 26.554688 22.808594 L 26.53125 22.867188 L 26.519531 22.898438 L 26.511719 22.929688 L 26.414062 23.195312 L 26.417969 23.199219 C 26.40625 23.234375 26.394531 23.269531 26.378906 23.304688 C 26.339844 23.417969 26.296875 23.53125 26.261719 23.644531 C 26.25 23.671875 26.242188 23.699219 26.234375 23.726562 C 26.222656 23.753906 26.214844 23.78125 26.207031 23.808594 C 26.1875 23.867188 26.171875 23.921875 26.152344 23.976562 C 26.140625 24.019531 26.125 24.0625 26.113281 24.109375 L 25.746094 25.179688 C 25.738281 25.203125 25.773438 25.21875 25.789062 25.199219 C 25.992188 24.980469 26.40625 24.710938 26.523438 24.636719 C 26.535156 24.628906 26.535156 24.609375 26.519531 24.601562 C 26.417969 24.558594 26.335938 24.484375 26.277344 24.410156 C 26.410156 24.027344 26.546875 23.660156 26.675781 23.304688 L 26.679688 23.308594 L 26.773438 23.058594 C 26.792969 22.992188 26.820312 22.929688 26.84375 22.867188 L 26.914062 22.679688 L 26.988281 22.492188 C 27 22.460938 27.011719 22.429688 27.023438 22.398438 L 27.0625 22.304688 L 27.136719 22.117188 L 27.171875 22.023438 L 27.191406 21.976562 L 27.199219 21.953125 L 27.210938 21.929688 L 27.363281 21.554688 L 27.441406 21.367188 L 27.523438 21.179688 L 27.601562 20.996094 C 27.609375 20.980469 27.613281 20.964844 27.621094 20.949219 L 27.644531 20.902344 L 27.683594 20.808594 L 27.765625 20.625 L 27.808594 20.53125 C 27.820312 20.5 27.835938 20.472656 27.851562 20.441406 L 28.019531 20.070312 L 28.195312 19.707031 C 28.433594 19.21875 28.6875 18.734375 28.957031 18.261719 C 29.019531 18.140625 29.089844 18.023438 29.160156 17.90625 L 29.210938 17.816406 L 29.226562 17.792969 L 29.238281 17.773438 L 29.265625 17.730469 L 29.375 17.554688 L 29.398438 17.507812 C 29.410156 17.496094 29.417969 17.480469 29.425781 17.464844 L 29.484375 17.378906 L 29.59375 17.203125 L 29.605469 17.183594 L 29.621094 17.160156 L 29.648438 17.117188 L 29.765625 16.945312 L 29.792969 16.902344 L 29.808594 16.882812 C 29.8125 16.875 29.816406 16.867188 29.820312 16.859375 L 29.941406 16.691406 L 30 16.605469 C 30.019531 16.578125 30.039062 16.546875 30.058594 16.519531 L 30.183594 16.351562 L 30.199219 16.332031 L 30.214844 16.308594 L 30.246094 16.269531 L 30.308594 16.183594 L 30.371094 16.101562 L 30.386719 16.082031 C 30.390625 16.074219 30.398438 16.066406 30.402344 16.0625 L 30.433594 16.019531 L 30.566406 15.855469 C 30.570312 15.847656 30.578125 15.84375 30.582031 15.835938 L 30.597656 15.816406 L 30.632812 15.773438 L 30.699219 15.695312 L 30.765625 15.613281 L 30.835938 15.535156 L 30.90625 15.453125 L 30.941406 15.414062 C 30.945312 15.40625 30.953125 15.402344 30.957031 15.394531 L 30.976562 15.375 L 31.117188 15.21875 L 31.136719 15.199219 C 31.144531 15.191406 31.148438 15.1875 31.15625 15.179688 L 31.191406 15.140625 L 31.265625 15.0625 L 31.304688 15.027344 L 31.320312 15.007812 C 31.328125 15 31.335938 14.996094 31.339844 14.988281 L 31.417969 14.914062 C 31.621094 14.710938 31.832031 14.519531 32.058594 14.335938 L 32.042969 14.347656 C 32.039062 14.351562 32.035156 14.355469 32.03125 14.359375 L 32 14.386719 L 31.886719 14.484375 L 31.871094 14.5 L 31.863281 14.503906 L 31.828125 14.539062 L 31.714844 14.640625 L 31.6875 14.667969 L 31.660156 14.691406 L 31.605469 14.746094 L 31.550781 14.796875 L 31.523438 14.824219 C 31.519531 14.828125 31.515625 14.832031 31.511719 14.839844 L 31.5 14.851562 L 31.394531 14.960938 L 31.339844 15.011719 C 31.324219 15.03125 31.304688 15.050781 31.289062 15.066406 L 31.1875 15.179688 C 30.917969 15.472656 30.667969 15.78125 30.433594 16.09375 C 30.199219 16.410156 29.980469 16.730469 29.769531 17.058594 L 29.691406 17.179688 L 29.652344 17.242188 L 29.617188 17.304688 L 29.539062 17.425781 L 29.503906 17.488281 L 29.464844 17.550781 L 29.320312 17.800781 L 29.300781 17.832031 L 29.285156 17.863281 L 29.25 17.925781 L 29.175781 18.050781 L 29.105469 18.179688 C 29.101562 18.1875 29.09375 18.199219 29.089844 18.210938 L 29.074219 18.242188 L 29.039062 18.304688 C 28.992188 18.390625 28.949219 18.472656 28.902344 18.558594 L 28.769531 18.8125 L 28.738281 18.878906 C 28.726562 18.898438 28.714844 18.917969 28.707031 18.941406 L 28.640625 19.070312 L 28.578125 19.199219 L 28.523438 19.308594 L 28.515625 19.328125 L 28.390625 19.585938 L 28.332031 19.714844 L 28.269531 19.84375 L 28.152344 20.105469 L 28.136719 20.136719 C 28.132812 20.148438 28.128906 20.160156 28.125 20.167969 L 28.09375 20.234375 L 28.039062 20.363281 L 27.980469 20.496094 C 27.960938 20.539062 27.941406 20.582031 27.921875 20.625 L 27.8125 20.890625 L 27.757812 21.019531 C 27.75 21.042969 27.738281 21.0625 27.730469 21.085938 L 27.703125 21.152344 L 27.597656 21.414062 L 27.570312 21.480469 L 27.558594 21.515625 L 27.542969 21.546875 L 27.390625 21.945312 L 27.363281 22.011719 L 27.339844 22.078125 L 27.289062 22.210938 C 27.269531 22.265625 27.335938 22.320312 27.386719 22.285156 C 27.464844 22.238281 27.542969 22.1875 27.621094 22.136719 C 27.660156 22.113281 27.695312 22.089844 27.734375 22.0625 C 27.773438 22.039062 27.8125 22.015625 27.847656 21.992188 C 27.925781 21.941406 28 21.894531 28.070312 21.847656 C 28.109375 21.820312 28.144531 21.796875 28.179688 21.773438 C 28.214844 21.75 28.253906 21.726562 28.289062 21.703125 C 28.359375 21.65625 28.429688 21.605469 28.5 21.558594 C 28.53125 21.535156 28.566406 21.511719 28.601562 21.488281 C 28.636719 21.464844 28.667969 21.441406 28.703125 21.417969 C 28.839844 21.324219 28.96875 21.234375 29.09375 21.140625 C 29.601562 20.777344 30.050781 20.425781 30.445312 20.085938 C 30.328125 20.097656 30.21875 20.105469 30.121094 20.113281 C 30.023438 20.117188 29.933594 20.121094 29.855469 20.125 C 29.695312 20.125 29.574219 20.121094 29.480469 20.113281 C 29.386719 20.101562 29.324219 20.089844 29.285156 20.082031 C 29.246094 20.070312 29.226562 20.0625 29.226562 20.0625 C 29.40625 20.121094 29.613281 20.109375 29.820312 20.058594 C 29.84375 20.050781 29.871094 20.046875 29.898438 20.039062 C 29.910156 20.035156 29.921875 20.03125 29.9375 20.027344 C 29.949219 20.023438 29.960938 20.019531 29.972656 20.015625 C 30.027344 20 30.078125 19.980469 30.128906 19.964844 C 30.230469 19.925781 30.332031 19.882812 30.425781 19.835938 C 30.449219 19.824219 30.472656 19.8125 30.496094 19.800781 C 30.519531 19.789062 30.542969 19.78125 30.5625 19.769531 C 30.609375 19.746094 30.652344 19.722656 30.691406 19.699219 C 30.734375 19.679688 30.773438 19.65625 30.808594 19.636719 C 30.847656 19.613281 30.882812 19.59375 30.914062 19.578125 C 31.042969 19.503906 31.125 19.449219 31.144531 19.441406 C 31.148438 19.4375 31.148438 19.441406 31.152344 19.441406 C 31.152344 19.441406 31.15625 19.445312 31.15625 19.441406 C 31.496094 19.113281 31.789062 18.800781 32.039062 18.496094 C 32.289062 18.191406 32.503906 17.898438 32.683594 17.617188 C 32.695312 17.597656 32.707031 17.578125 32.71875 17.5625 C 32.730469 17.542969 32.742188 17.527344 32.75 17.507812 C 32.773438 17.472656 32.792969 17.4375 32.816406 17.402344 C 32.820312 17.394531 32.824219 17.386719 32.832031 17.378906 L 32.839844 17.363281 L 32.847656 17.351562 C 32.855469 17.332031 32.867188 17.316406 32.878906 17.300781 C 32.898438 17.265625 32.917969 17.230469 32.9375 17.195312 C 32.941406 17.1875 32.945312 17.175781 32.949219 17.167969 C 32.957031 17.160156 32.960938 17.152344 32.964844 17.144531 C 32.976562 17.125 32.984375 17.109375 32.992188 17.09375 C 33.011719 17.058594 33.03125 17.023438 33.046875 16.988281 C 33.050781 16.980469 33.058594 16.972656 33.0625 16.964844 C 33.066406 16.957031 33.070312 16.945312 33.074219 16.9375 C 33.082031 16.921875 33.09375 16.90625 33.101562 16.886719 C 33.109375 16.871094 33.117188 16.855469 33.125 16.835938 C 33.128906 16.828125 33.136719 16.820312 33.140625 16.8125 C 33.144531 16.804688 33.148438 16.792969 33.152344 16.785156 C 33.285156 16.519531 33.398438 16.257812 33.503906 16 C 33.464844 16 33.425781 16.003906 33.386719 16.003906 C 33.351562 16.007812 33.3125 16.011719 33.277344 16.011719 C 33.257812 16.015625 33.242188 16.015625 33.222656 16.019531 C 33.214844 16.019531 33.203125 16.019531 33.195312 16.019531 C 33.191406 16.019531 33.1875 16.019531 33.183594 16.019531 C 33.179688 16.019531 33.171875 16.023438 33.167969 16.023438 C 33.132812 16.027344 33.097656 16.027344 33.066406 16.03125 C 33.03125 16.035156 33 16.039062 32.964844 16.042969 C 32.960938 16.042969 32.957031 16.042969 32.953125 16.042969 C 32.949219 16.042969 32.945312 16.042969 32.941406 16.046875 C 32.933594 16.046875 32.925781 16.046875 32.917969 16.046875 C 32.902344 16.050781 32.886719 16.050781 32.871094 16.054688 C 32.839844 16.058594 32.808594 16.0625 32.777344 16.0625 C 32.765625 16.066406 32.75 16.066406 32.734375 16.070312 C 32.726562 16.070312 32.71875 16.070312 32.710938 16.070312 C 32.707031 16.074219 32.699219 16.074219 32.691406 16.074219 C 32.632812 16.082031 32.582031 16.089844 32.527344 16.09375 C 32.503906 16.097656 32.476562 16.101562 32.453125 16.101562 C 32.441406 16.105469 32.429688 16.105469 32.417969 16.109375 C 32.40625 16.109375 32.394531 16.109375 32.382812 16.113281 C 32.335938 16.117188 32.292969 16.121094 32.253906 16.128906 C 32.234375 16.128906 32.214844 16.132812 32.195312 16.132812 C 32.183594 16.132812 32.175781 16.136719 32.167969 16.136719 C 32.15625 16.136719 32.148438 16.136719 32.140625 16.136719 C 32 16.152344 31.898438 16.15625 31.832031 16.15625 C 31.824219 16.15625 31.816406 16.15625 31.808594 16.15625 C 31.804688 16.15625 31.796875 16.15625 31.789062 16.15625 C 31.777344 16.15625 31.769531 16.15625 31.761719 16.15625 C 31.746094 16.15625 31.738281 16.15625 31.738281 16.15625 C 31.753906 16.152344 31.765625 16.152344 31.777344 16.152344 C 31.785156 16.152344 31.792969 16.148438 31.796875 16.148438 C 31.804688 16.148438 31.8125 16.148438 31.820312 16.144531 C 31.847656 16.140625 31.875 16.136719 31.902344 16.132812 C 31.960938 16.121094 32.019531 16.101562 32.082031 16.085938 C 32.089844 16.082031 32.097656 16.078125 32.105469 16.078125 C 32.113281 16.074219 32.121094 16.074219 32.128906 16.070312 C 32.144531 16.066406 32.160156 16.058594 32.175781 16.054688 C 32.207031 16.042969 32.238281 16.03125 32.269531 16.019531 C 32.335938 15.996094 32.402344 15.972656 32.46875 15.945312 C 32.484375 15.941406 32.5 15.933594 32.515625 15.925781 C 32.527344 15.921875 32.535156 15.917969 32.542969 15.917969 L 32.554688 15.910156 L 32.566406 15.90625 C 32.601562 15.894531 32.632812 15.878906 32.667969 15.867188 C 32.683594 15.859375 32.703125 15.851562 32.71875 15.84375 L 32.742188 15.832031 L 32.753906 15.828125 C 32.757812 15.828125 32.761719 15.824219 32.769531 15.824219 C 32.800781 15.808594 32.835938 15.796875 32.867188 15.78125 C 32.882812 15.777344 32.898438 15.769531 32.917969 15.761719 C 32.925781 15.757812 32.933594 15.753906 32.941406 15.75 C 32.949219 15.75 32.957031 15.746094 32.964844 15.742188 C 33 15.730469 33.03125 15.714844 33.0625 15.703125 C 33.078125 15.695312 33.09375 15.691406 33.109375 15.683594 L 33.121094 15.679688 L 33.132812 15.671875 C 33.140625 15.671875 33.148438 15.667969 33.15625 15.664062 C 33.1875 15.652344 33.21875 15.640625 33.25 15.628906 C 33.289062 15.613281 33.328125 15.597656 33.363281 15.578125 C 33.382812 15.566406 33.398438 15.558594 33.417969 15.546875 L 33.429688 15.539062 L 33.445312 15.53125 C 33.453125 15.527344 33.460938 15.519531 33.46875 15.515625 C 33.488281 15.503906 33.503906 15.492188 33.519531 15.480469 C 33.527344 15.472656 33.535156 15.46875 33.542969 15.460938 L 33.566406 15.445312 C 33.597656 15.417969 33.628906 15.390625 33.65625 15.363281 C 33.769531 15.25 33.855469 15.113281 33.929688 14.949219 C 33.941406 14.917969 33.957031 14.882812 33.96875 14.851562 C 33.984375 14.820312 34 14.789062 34.011719 14.757812 C 34.019531 14.742188 34.027344 14.726562 34.035156 14.710938 C 34.042969 14.695312 34.046875 14.679688 34.054688 14.664062 C 34.070312 14.632812 34.085938 14.601562 34.101562 14.570312 C 34.117188 14.539062 34.128906 14.511719 34.144531 14.480469 C 34.148438 14.472656 34.152344 14.464844 34.15625 14.457031 C 34.160156 14.449219 34.164062 14.441406 34.167969 14.433594 C 34.175781 14.421875 34.183594 14.40625 34.191406 14.390625 C 34.199219 14.375 34.207031 14.363281 34.214844 14.347656 C 34.21875 14.339844 34.222656 14.332031 34.226562 14.324219 L 34.234375 14.3125 L 34.238281 14.304688 C 34.253906 14.273438 34.273438 14.246094 34.289062 14.214844 C 34.304688 14.1875 34.320312 14.160156 34.335938 14.132812 C 34.347656 14.117188 34.355469 14.105469 34.363281 14.089844 C 34.367188 14.082031 34.371094 14.078125 34.375 14.070312 C 34.378906 14.0625 34.382812 14.054688 34.386719 14.050781 C 34.40625 14.023438 34.421875 13.996094 34.441406 13.96875 C 34.445312 13.960938 34.449219 13.957031 34.453125 13.949219 C 34.457031 13.941406 34.460938 13.9375 34.464844 13.929688 C 34.476562 13.917969 34.484375 13.902344 34.492188 13.890625 C 34.5 13.878906 34.511719 13.867188 34.519531 13.851562 C 34.523438 13.847656 34.527344 13.839844 34.53125 13.832031 C 34.535156 13.828125 34.542969 13.820312 34.546875 13.816406 C 34.5625 13.789062 34.582031 13.765625 34.601562 13.742188 C 34.609375 13.730469 34.617188 13.71875 34.628906 13.707031 C 34.636719 13.695312 34.644531 13.683594 34.65625 13.671875 C 34.664062 13.660156 34.671875 13.648438 34.683594 13.636719 C 34.691406 13.625 34.699219 13.613281 34.710938 13.601562 C 34.726562 13.578125 34.746094 13.558594 34.765625 13.535156 C 34.785156 13.515625 34.800781 13.496094 34.820312 13.472656 C 34.828125 13.464844 34.839844 13.453125 34.847656 13.445312 C 34.859375 13.433594 34.867188 13.425781 34.875 13.414062 C 34.894531 13.394531 34.914062 13.375 34.929688 13.359375 C 34.96875 13.320312 35.003906 13.285156 35.042969 13.253906 C 35.050781 13.246094 35.058594 13.238281 35.066406 13.230469 C 35.078125 13.222656 35.085938 13.214844 35.09375 13.207031 C 35.113281 13.191406 35.128906 13.175781 35.148438 13.164062 C 35.285156 13.050781 35.394531 12.972656 35.460938 12.929688 C 35.480469 12.914062 35.488281 12.894531 35.484375 12.875 " fill-opacity="1" fill-rule="nonzero"/></g></svg>